<svg aria-hidden="true" style="position:absolute;width:0;height:0;overflow:hidden" xmlns="http://www.w3.org/2000/svg">
  <defs>
    <symbol id="icon-close-big" viewBox="0 0 32 32">
      <path d="M23.733 10.304 22.229 8.8l-5.963 5.963L10.303 8.8l-1.504 1.504 5.963 5.963-5.963 5.963 1.504 1.504 5.963-5.963 5.963 5.963 1.504-1.504-5.963-5.963 5.963-5.963z"/>
    </symbol>
    <symbol id="icon-menu" viewBox="0 0 32 32">
      <path d="M6.4 11.733V9.6h19.2v2.133H6.4zm0 5.334h19.2v-2.133H6.4v2.133zm0 5.333h19.2v-2.133H6.4V22.4z"/>
    </symbol>
    <symbol id="icon-icon-check" viewBox="0 0 32 32">
      <path stroke-width=".4" d="m7.914 16.503-.138-.131-2.067 1.958 7.282 6.947 15.298-14.594-2.053-1.959-13.245 12.623-5.077-4.844z"/>
    </symbol>
    <symbol id="icon-person-black" viewBox="0 0 32 32">
      <path d="M16 16c2.947 0 5.333-2.387 5.333-5.333S18.946 5.334 16 5.334c-2.947 0-5.333 2.387-5.333 5.333S13.054 16 16 16zm0 2.667c-3.56 0-10.667 1.787-10.667 5.333v1.333c0 .733.6 1.333 1.333 1.333h18.667c.733 0 1.333-.6 1.333-1.333V24c0-3.547-7.107-5.333-10.667-5.333z"/>
    </symbol>
    <symbol id="icon-close" viewBox="0 0 32 32">
      <path d="m26.667 7.303-1.97-1.97-7.808 7.808-7.808-7.808-1.97 1.97 7.808 7.808-7.808 7.808 1.97 1.97 7.808-7.808 7.808 7.808 1.97-1.97-7.808-7.808 7.808-7.808z"/>
    </symbol>
    <symbol id="icon-linkedin" viewBox="0 0 32 32">
      <path d="M31.992 32v-.001H32V20.263c0-5.741-1.236-10.164-7.948-10.164-3.227 0-5.392 1.771-6.276 3.449h-.093v-2.913h-6.364v21.364h6.627V21.42c0-2.785.528-5.479 3.977-5.479 3.399 0 3.449 3.179 3.449 5.657v10.401h6.62zM.528 10.636h6.635V32H.528V10.636zM3.843 0C1.722 0 0 1.721 0 3.843s1.721 3.879 3.843 3.879c2.121 0 3.843-1.757 3.843-3.879A3.846 3.846 0 0 0 3.843 0z"/>
    </symbol>
    <symbol id="icon-facebook" viewBox="0 0 32 32">
      <path d="M21.329 5.313h2.921V.225C23.746.156 22.013 0 19.994 0c-4.212 0-7.097 2.649-7.097 7.519V12H8.249v5.688h4.648V32h5.699V17.689h4.46l.708-5.688h-5.169V8.082c.001-1.644.444-2.769 2.735-2.769z"/>
    </symbol>
    <symbol id="icon-twitter" viewBox="0 0 32 32">
      <path d="M32 6.078c-1.19.522-2.458.868-3.78 1.036a6.523 6.523 0 0 0 2.886-3.626 13.11 13.11 0 0 1-4.16 1.588A6.574 6.574 0 0 0 22.154 3c-3.632 0-6.556 2.948-6.556 6.562 0 .52.044 1.02.152 1.496-5.454-.266-10.28-2.88-13.522-6.862a6.605 6.605 0 0 0-.898 3.316 6.57 6.57 0 0 0 2.914 5.452 6.479 6.479 0 0 1-2.964-.808v.072c0 3.188 2.274 5.836 5.256 6.446a6.548 6.548 0 0 1-1.72.216 5.8 5.8 0 0 1-1.242-.112c.85 2.598 3.262 4.508 6.13 4.57a13.182 13.182 0 0 1-8.134 2.798c-.538 0-1.054-.024-1.57-.09A18.469 18.469 0 0 0 10.064 29c12.072 0 18.672-10 18.672-18.668 0-.29-.01-.57-.024-.848A13.087 13.087 0 0 0 32 6.078z"/>
    </symbol>
    <symbol id="icon-instagram" viewBox="0 0 32 32">
      <path d="M31.969 9.408c-.075-1.7-.35-2.869-.744-3.882a7.806 7.806 0 0 0-1.851-2.838A7.867 7.867 0 0 0 26.542.844C25.523.45 24.36.175 22.66.1 20.947.019 20.403 0 16.059 0s-4.888.019-6.595.094c-1.7.075-2.869.35-3.882.744a7.803 7.803 0 0 0-2.838 1.85A7.867 7.867 0 0 0 .9 5.52C.506 6.539.231 7.702.156 9.402c-.081 1.713-.1 2.257-.1 6.601s.019 4.888.094 6.595c.075 1.7.35 2.869.744 3.882a7.895 7.895 0 0 0 1.85 2.838 7.867 7.867 0 0 0 2.832 1.844c1.019.394 2.182.669 3.882.744 1.706.075 2.25.094 6.595.094s4.888-.019 6.595-.094c1.7-.075 2.869-.35 3.882-.744a8.184 8.184 0 0 0 4.682-4.682c.394-1.019.669-2.182.744-3.882.075-1.707.094-2.251.094-6.595s-.006-4.888-.081-6.595zm-2.882 13.065c-.069 1.563-.331 2.407-.55 2.969a5.31 5.31 0 0 1-3.038 3.038c-.563.219-1.413.481-2.969.55-1.688.075-2.194.094-6.464.094s-4.782-.019-6.464-.094c-1.563-.069-2.407-.331-2.969-.55a4.926 4.926 0 0 1-1.838-1.194 4.974 4.974 0 0 1-1.194-1.838c-.219-.563-.481-1.413-.55-2.969-.075-1.688-.094-2.194-.094-6.464s.019-4.782.094-6.464c.069-1.563.331-2.407.55-2.969a4.868 4.868 0 0 1 1.2-1.838A4.974 4.974 0 0 1 6.639 3.55c.563-.219 1.413-.481 2.969-.55 1.688-.075 2.194-.094 6.464-.094 4.276 0 4.782.019 6.464.094 1.563.069 2.407.331 2.969.55a4.914 4.914 0 0 1 1.838 1.194 4.974 4.974 0 0 1 1.194 1.838c.219.563.481 1.413.55 2.969.075 1.688.094 2.194.094 6.464s-.019 4.77-.094 6.458z"/>
      <path d="M16.059 7.783c-4.538 0-8.22 3.682-8.22 8.22s3.682 8.22 8.22 8.22c4.539 0 8.22-3.682 8.22-8.22s-3.682-8.22-8.22-8.22zm0 13.552a5.333 5.333 0 0 1 0-10.664 5.333 5.333 0 0 1 0 10.664zM26.524 7.458a1.919 1.919 0 1 1-3.838 0 1.919 1.919 0 0 1 3.838 0z"/>
    </symbol>
    <symbol id="icon-envelope" viewBox="0 0 43 32">
      <path d="M38.667 0H4C1.794 0 0 1.794 0 4v24c0 2.206 1.794 4 4 4h34.667c2.206 0 4-1.794 4-4V4c0-2.206-1.794-4-4-4zm0 2.667c.181 0 .353.038.511.103L21.334 18.236 3.49 2.77a1.32 1.32 0 0 1 .511-.103h34.667zm0 26.666H4A1.334 1.334 0 0 1 2.667 28V5.587L20.46 21.008a1.335 1.335 0 0 0 1.748 0L40.001 5.587V28c0 .736-.598 1.333-1.333 1.333z"/>
    </symbol>
    <symbol id="icon-github" viewBox="0 0 32 32">
      <path d="M16 0.395c-8.836 0-16 7.163-16 16 0 7.069 4.585 13.067 10.942 15.182 0.8 0.148 1.094-0.347 1.094-0.77 0-0.381-0.015-1.642-0.022-2.979-4.452 0.968-5.391-1.888-5.391-1.888-0.728-1.849-1.776-2.341-1.776-2.341-1.452-0.993 0.11-0.973 0.11-0.973 1.606 0.113 2.452 1.649 2.452 1.649 1.427 2.446 3.743 1.739 4.656 1.33 0.143-1.034 0.558-1.74 1.016-2.14-3.554-0.404-7.29-1.777-7.29-7.907 0-1.747 0.625-3.174 1.649-4.295-0.166-0.403-0.714-2.030 0.155-4.234 0 0 1.344-0.43 4.401 1.64 1.276-0.355 2.645-0.532 4.005-0.539 1.359 0.006 2.729 0.184 4.008 0.539 3.054-2.070 4.395-1.64 4.395-1.64 0.871 2.204 0.323 3.831 0.157 4.234 1.026 1.12 1.647 2.548 1.647 4.295 0 6.145-3.743 7.498-7.306 7.895 0.574 0.497 1.085 1.47 1.085 2.963 0 2.141-0.019 3.864-0.019 4.391 0 0.426 0.288 0.925 1.099 0.768 6.354-2.118 10.933-8.113 10.933-15.18 0-8.837-7.164-16-16-16z"/>
    </symbol>
    <symbol id="icon-feed" viewBox="0 0 32 32">
      <path d="M12 16c0-2.209 1.791-4 4-4s4 1.791 4 4c0 2.209-1.791 4-4 4s-4-1.791-4-4zM20.761 7.204c3.12 1.692 5.239 4.997 5.239 8.796s-2.119 7.104-5.239 8.796c1.377-2.191 2.239-5.321 2.239-8.796s-0.862-6.605-2.239-8.796zM9 16c0 3.475 0.862 6.605 2.239 8.796-3.12-1.692-5.239-4.997-5.239-8.796s2.119-7.104 5.239-8.796c-1.377 2.191-2.239 5.321-2.239 8.796zM3 16c0 5.372 1.7 10.193 4.395 13.491-4.447-2.842-7.395-7.822-7.395-13.491s2.948-10.649 7.395-13.491c-2.695 3.298-4.395 8.119-4.395 13.491zM24.605 2.509c4.447 2.842 7.395 7.822 7.395 13.491s-2.948 10.649-7.395 13.491c2.695-3.298 4.395-8.119 4.395-13.491s-1.7-10.193-4.395-13.491z"></path>
    </symbol>
    <symbol id="icon-hand-up" viewBox="0 0 32 32">
     <path d="M26.141 11.2c-0.587 0-1.173 0.213-1.6 0.533v-0.533c0-1.493-1.173-2.667-2.667-2.667-0.587 0-1.173 0.213-1.6 0.533 0-1.493-1.173-2.667-2.667-2.667-0.587 0-1.173 0.213-1.6 0.533v-4.267c0-1.493-1.173-2.667-2.667-2.667s-2.667 1.173-2.667 2.667v12.107c-1.173-2.027-3.893-3.040-5.973-2.293-0.267 0.053-0.48 0.213-0.747 0.373-0.8 0.533-0.747 1.227-0.747 1.44-0.053 0.32 0 0.373 0.747 1.227 0.907 1.067 2.88 3.307 4.107 5.547 0.107 0.107 1.547 2.453 3.147 4.213v1.387c0 2.933 2.4 5.333 5.333 5.333h5.333c2.293 0 4.693-1.92 5.227-4.16 0.16-0.64 0.32-1.12 0.533-1.333 0.533-0.64 1.173-2.133 1.173-4.107v-8.533c0-1.493-1.173-2.667-2.667-2.667zM21.928 30.933h-5.333c-2.347 0-4.267-1.92-4.267-4.267v-0.423c0.18 0.146 0.36 0.288 0.533 0.423 0.213 0.213 0.48 0.427 0.747 0.64 0.107 0.053 0.213 0.107 0.32 0.107 0.16 0 0.32-0.053 0.427-0.213 0.213-0.213 0.16-0.533-0.053-0.747-0.267-0.213-0.533-0.427-0.8-0.64-0.468-0.364-0.936-0.729-1.355-1.143-1.592-1.654-3.125-4.137-3.125-4.137-1.28-2.293-3.307-4.587-4.267-5.707-0.16-0.213-0.373-0.48-0.48-0.587 0-0.16 0-0.267 0.373-0.48 0.213-0.107 0.373-0.213 0.533-0.267 1.387-0.48 3.68 0.16 4.693 1.92l0.824 1.237c0.007 0.033 0.016 0.065 0.029 0.097l0.533 1.067c0.107 0.213 0.64 0.32 0.693 0.213 0.213-0.107 0.32-0.427 0.213-0.693l-0.376-0.752c0.002-0.016 0.003-0.032 0.003-0.048v-13.867c0-0.907 0.693-1.6 1.6-1.6s1.6 0.693 1.6 1.6v8.533c0 0 0 0 0 0v6.56c0 0.32 0.213 0.533 0.533 0.533s0.533-0.213 0.533-0.533v-8.693c0-0.907 0.693-1.6 1.6-1.6s1.6 0.693 1.6 1.6v8.16c0 0.32 0.213 0.533 0.533 0.533s0.533-0.213 0.533-0.533v-6.027c0-0.907 0.693-1.6 1.6-1.6s1.6 0.693 1.6 1.6v6.56c0 0.32 0.213 0.533 0.533 0.533s0.533-0.213 0.533-0.533v-3.893c0-0.907 0.693-1.6 1.6-1.6s1.6 0.693 1.6 1.6v8.533c0 0.944-0.174 1.714-0.385 2.289-0.063 0.058-0.114 0.133-0.148 0.218-0.267 0.8-1.013 1.067-2.347 1.44-0.267 0.053-0.427 0.373-0.373 0.64 0.107 0.213 0.32 0.373 0.533 0.373 0.053 0 0.107 0 0.107 0.053 0.353-0.095 0.695-0.194 1.018-0.31-0.041 0.149-0.079 0.306-0.111 0.47-0.373 1.813-2.346 3.36-4.16 3.36z"></path>
    </symbol>
    <symbol id="icon-arrow-top" viewBox="0 0 32 32">
     <path d="M22.667 17.88l-5.72-5.653c-0.242-0.244-0.577-0.394-0.947-0.394s-0.705 0.151-0.947 0.394l-5.653 5.653c-0.244 0.242-0.394 0.577-0.394 0.947s0.151 0.705 0.394 0.947l0 0c0.241 0.24 0.573 0.388 0.94 0.388s0.699-0.148 0.94-0.388l4.72-4.72 4.72 4.72c0.24 0.238 0.569 0.385 0.933 0.387h0c0.002 0 0.005 0 0.008 0 0.366 0 0.698-0.148 0.939-0.387l-0 0c0.264-0.244 0.429-0.593 0.429-0.98 0-0.354-0.138-0.676-0.363-0.914l0.001 0.001z"></path>
    </symbol>
    <symbol id="icon-location" viewBox="0 0 32 32">
     <path d="M16 0c-5.523 0-10 4.477-10 10 0 10 10 22 10 22s10-12 10-22c0-5.523-4.477-10-10-10zM16 16c-3.314 0-6-2.686-6-6s2.686-6 6-6 6 2.686 6 6-2.686 6-6 6z"></path>
    </symbol>
    <symbol id="icon-javascript" viewBox="0 0 32 32">
     <path fill="#f7df1e" style="fill: var(--color1, #f7df1e)" d="M4 28v-24h24v24h-24z"></path>
     <path fill="#000001" style="fill: var(--color2, #000001)" d="M19.692 21.965c0.461 0.749 0.963 1.467 2.025 1.467 0.892 0 1.36-0.443 1.36-1.057 0-0.734-0.484-0.995-1.465-1.422l-0.538-0.229c-1.553-0.659-2.585-1.484-2.585-3.227 0-1.607 1.23-2.829 3.152-2.829 1.369 0 2.352 0.474 3.061 1.715l-1.676 1.071c-0.369-0.659-0.767-0.918-1.385-0.918-0.631 0-1.030 0.398-1.030 0.918 0 0.643 0.4 0.903 1.323 1.301l0.538 0.229c1.83 0.779 2.862 1.575 2.862 3.365 0 1.928-1.523 2.985-3.567 2.985-1.999 0-3.135-1.003-3.767-2.245l1.692-1.123zM11.968 22.019c0.337 0.604 0.85 1.069 1.587 1.069 0.705 0 1.111-0.279 1.111-1.362v-7.059h2.222v7.401c0 2.245-1.302 3.266-3.203 3.266-1.718 0-2.958-1.164-3.463-2.245l1.746-1.069z"></path>
    </symbol>
    <symbol id="icon-node" viewBox="0 0 32 32">
     <path fill="#388e3c" style="fill: var(--color3, #388e3c)" d="M11.469 12.748l-3.271 1.81c-0.123 0.067-0.198 0.193-0.198 0.328v3.622c0 0.135 0.075 0.26 0.198 0.328l3.272 1.811c0.122 0.067 0.273 0.067 0.395 0l3.271-1.811c0.121-0.068 0.197-0.193 0.197-0.328v-3.622c0-0.135-0.075-0.26-0.198-0.328l-3.271-1.81c-0.061-0.034-0.13-0.051-0.198-0.051s-0.137 0.017-0.198 0.051zM28.301 16.009l-0.545 0.301c-0.021 0.011-0.033 0.032-0.033 0.055v0.604c0 0.023 0.013 0.043 0.033 0.055l0.545 0.302c0.021 0.011 0.045 0.011 0.066 0l0.545-0.302c0.020-0.011 0.033-0.032 0.033-0.055v-0.604c0-0.023-0.013-0.043-0.033-0.055l-0.545-0.301c-0.010-0.006-0.021-0.009-0.033-0.009s-0.023 0.003-0.033 0.009z"></path>
     <path fill="#37474f" style="fill: var(--color4, #37474f)" d="M23.834 8.909l-1.593-0.889c-0.050-0.028-0.111-0.027-0.161 0.002s-0.080 0.082-0.080 0.139l-0.001 5.368-1.469-0.813c-0.061-0.034-0.13-0.051-0.198-0.051s-0.137 0.017-0.198 0.051h0.001l-3.271 1.81c-0.123 0.067-0.198 0.193-0.198 0.327v3.622c0 0.135 0.075 0.26 0.198 0.328l3.272 1.811c0.122 0.067 0.273 0.067 0.395 0l3.271-1.811c0.121-0.067 0.197-0.193 0.197-0.328v-9.285c0-0.117-0.064-0.225-0.166-0.283zM21.911 17.639l-1.487 0.823c-0.055 0.031-0.124 0.031-0.179 0l-1.487-0.823c-0.057-0.031-0.091-0.088-0.091-0.149v-1.647c0-0.061 0.034-0.118 0.090-0.149l1.487-0.823c0.028-0.015 0.059-0.023 0.090-0.023s0.062 0.008 0.090 0.023l1.487 0.823c0.056 0.031 0.090 0.089 0.090 0.15v1.647c0 0.061-0.034 0.118-0.089 0.149z"></path>
     <path fill="#2e7d32" style="fill: var(--color5, #2e7d32)" d="M11.469 12.748l-3.469 5.76c0 0.135 0.075 0.26 0.198 0.328l3.272 1.811c0.122 0.067 0.273 0.067 0.395 0l3.468-5.761c0-0.135-0.075-0.26-0.198-0.328l-3.271-1.81c-0.061-0.034-0.13-0.051-0.198-0.051s-0.137 0.017-0.198 0.051z"></path>
     <path fill="#4caf50" style="fill: var(--color6, #4caf50)" d="M11.469 12.748l-3.271 1.81c-0.123 0.067-0.198 0.193-0.198 0.328l3.469 5.761c0.122 0.067 0.273 0.067 0.395 0l3.271-1.811c0.122-0.068 0.197-0.193 0.197-0.328l-3.469-5.76c-0.061-0.034-0.13-0.051-0.198-0.051s-0.137 0.017-0.198 0.051z"></path>
     <path fill="#37474f" style="fill: var(--color4, #37474f)" d="M31.802 14.527l-3.271-1.81c-0.061-0.034-0.13-0.051-0.198-0.051s-0.137 0.017-0.198 0.051h0.001l-3.271 1.81c-0.122 0.067-0.198 0.195-0.198 0.335v3.607c0 0.139 0.076 0.268 0.198 0.335l3.272 1.811c0.123 0.068 0.273 0.068 0.395 0l1.509-0.835c0.138-0.077 0.137-0.275-0.001-0.351l-3.283-1.791c-0.055-0.031-0.090-0.089-0.090-0.152v-1.644c0-0.061 0.033-0.118 0.087-0.147l1.489-0.824c0.028-0.015 0.059-0.023 0.090-0.023s0.062 0.008 0.090 0.023l1.49 0.825c0.053 0.029 0.087 0.086 0.087 0.147v1.341c0 0.057 0.031 0.111 0.081 0.139s0.111 0.028 0.161-0.001l1.599-0.929c0.099-0.057 0.16-0.163 0.16-0.278v-1.253c0-0.141-0.076-0.269-0.198-0.337zM7.135 14.527l-3.271-1.81c-0.061-0.034-0.13-0.051-0.198-0.051s-0.137 0.017-0.198 0.051h0.001l-3.271 1.81c-0.122 0.067-0.198 0.195-0.198 0.335v4.977c0 0.057 0.031 0.111 0.081 0.139s0.111 0.028 0.161-0.001l1.599-0.929c0.099-0.057 0.159-0.163 0.159-0.278v-2.929c0-0.061 0.033-0.118 0.087-0.147l1.49-0.824c0.028-0.015 0.059-0.023 0.090-0.023s0.062 0.008 0.090 0.023l1.49 0.825c0.053 0.029 0.087 0.086 0.087 0.147v2.929c0 0.115 0.061 0.221 0.16 0.278l1.599 0.929c0.050 0.029 0.111 0.029 0.161 0.001 0.049-0.029 0.080-0.083 0.080-0.14v-4.976c0-0.14-0.076-0.269-0.198-0.336z"></path>
    </symbol>
    <symbol id="icon-redux" viewBox="0 0 32 32">
     <path fill="#7e57c2" style="fill: var(--color7, #7e57c2)" d="M15.333 2.667c-4.411 0-8 4.847-8 10.803 0 3.223 1.055 6.113 2.719 8.091-0.032 0.142-0.052 0.288-0.052 0.439 0 1.105 0.895 2 2 2s2-0.895 2-2-0.895-2-2-2c-0.21 0-0.408 0.041-0.598 0.101-1.265-1.614-2.069-3.985-2.069-6.631 0-4.854 2.691-8.803 6-8.803 2.558 0 4.741 2.365 5.603 5.679 0.748 0.231 1.491 0.521 2.22 0.872-0.77-4.879-3.983-8.551-7.823-8.551z"></path>
     <path fill="#7e57c2" style="fill: var(--color7, #7e57c2)" d="M23.671 13.389c-2.631-1.595-5.583-2.295-8.121-1.973-0.367-0.454-0.921-0.75-1.55-0.75-1.105 0-2 0.895-2 2s0.895 2 2 2c0.848 0 1.569-0.53 1.859-1.275 2.079-0.253 4.541 0.354 6.775 1.709 4.269 2.587 6.447 7.046 4.855 9.941-0.551 1.003-1.524 1.715-2.812 2.060-1.524 0.407-3.338 0.263-5.151-0.352-0.559 0.515-1.166 0.999-1.817 1.445 1.701 0.745 3.464 1.136 5.113 1.136 0.827 0 1.625-0.098 2.373-0.298 1.827-0.489 3.227-1.536 4.047-3.028 2.102-3.821-0.397-9.48-5.571-12.615z"></path>
     <path fill="#7e57c2" style="fill: var(--color7, #7e57c2)" d="M23.333 19.328c0-1.101-0.895-1.995-2-1.995s-2 0.893-2 1.995c0 0.446 0.152 0.854 0.4 1.186-0.853 1.868-2.496 3.711-4.708 5.052-2.577 1.563-5.457 2.135-7.703 1.535-1.288-0.345-2.261-1.057-2.812-2.060-1.135-2.063-0.347-4.917 1.74-7.325-0.215-0.763-0.375-1.56-0.471-2.383-3.38 3.198-4.739 7.549-3.021 10.673 0.82 1.492 2.22 2.539 4.047 3.028 0.747 0.2 1.545 0.298 2.373 0.298 2.231 0 4.671-0.712 6.884-2.053 2.557-1.55 4.455-3.718 5.473-5.975 1.009-0.102 1.799-0.942 1.799-1.975z"></path>
    </symbol>
    <symbol id="icon-react" viewBox="0 0 32 32">
     <path fill="#39c1d7" style="fill: var(--color8, #39c1d7)" d="M18.24 16c0 1.237-1.003 2.24-2.24 2.24s-2.24-1.003-2.24-2.24c0-1.237 1.003-2.24 2.24-2.24s2.24 1.003 2.24 2.24z"></path>
     <path fill="#1f212b" style="fill: var(--color9, #1f212b)" d="M16 18.56c-1.412 0-2.56-1.148-2.56-2.56s1.148-2.56 2.56-2.56 2.56 1.148 2.56 2.56-1.148 2.56-2.56 2.56zM16 14.080c-1.059 0-1.92 0.861-1.92 1.92s0.861 1.92 1.92 1.92 1.92-0.861 1.92-1.92-0.861-1.92-1.92-1.92z"></path>
     <path fill="#39c1d7" style="fill: var(--color8, #39c1d7)" d="M28.32 16c0-1.72-2.072-3.209-5.286-4.095 0.826-3.231 0.572-5.771-0.905-6.633-0.582-0.34-1.289-0.402-2.1-0.185-1.222 0.327-2.622 1.283-4.030 2.688-1.408-1.404-2.808-2.36-4.030-2.688-0.811-0.217-1.517-0.155-2.1 0.185-1.476 0.862-1.731 3.402-0.905 6.633-3.214 0.886-5.286 2.375-5.286 4.095s2.072 3.209 5.286 4.096c-0.826 3.231-0.572 5.771 0.905 6.633 0.356 0.208 0.758 0.312 1.202 0.312 0.283 0 0.582-0.042 0.898-0.127 1.222-0.327 2.622-1.283 4.030-2.688 1.408 1.404 2.808 2.36 4.030 2.688 0.316 0.084 0.615 0.127 0.898 0.127 0.444 0 0.846-0.104 1.202-0.312 1.476-0.862 1.731-3.403 0.905-6.633 3.214-0.886 5.286-2.375 5.286-4.096zM20.278 6.013c0.232-0.062 0.447-0.093 0.645-0.093 0.275 0 0.517 0.060 0.722 0.18 0.989 0.578 1.191 2.694 0.454 5.572-1.015-0.228-2.123-0.4-3.3-0.507-0.691-0.996-1.41-1.903-2.134-2.697 1.286-1.289 2.547-2.169 3.612-2.455zM19.442 18.016c-0.377 0.661-0.774 1.294-1.182 1.9-0.723 0.054-1.477 0.084-2.26 0.084s-1.537-0.030-2.26-0.084c-0.407-0.606-0.804-1.239-1.182-1.9-0.39-0.684-0.74-1.357-1.054-2.015 0.314-0.659 0.664-1.332 1.054-2.016 0.378-0.661 0.774-1.295 1.182-1.901 0.723-0.054 1.476-0.084 2.259-0.084s1.536 0.030 2.26 0.084c0.407 0.606 0.804 1.24 1.182 1.901 0.39 0.684 0.74 1.357 1.054 2.016-0.314 0.659-0.664 1.332-1.054 2.015zM21.006 17.134c0.333 0.788 0.608 1.546 0.831 2.266-0.728 0.162-1.514 0.298-2.353 0.398 0.269-0.424 0.535-0.858 0.791-1.307 0.26-0.454 0.502-0.907 0.731-1.357zM16 22.834c-0.524-0.579-1.046-1.22-1.556-1.913 0.509 0.025 1.028 0.039 1.556 0.039s1.047-0.014 1.556-0.039c-0.51 0.693-1.033 1.334-1.556 1.913zM12.516 19.798c-0.839-0.1-1.625-0.236-2.353-0.398 0.223-0.721 0.498-1.479 0.831-2.266 0.229 0.45 0.472 0.903 0.731 1.357 0.257 0.449 0.522 0.883 0.791 1.307zM10.994 14.866c-0.333-0.788-0.609-1.546-0.831-2.267 0.728-0.162 1.514-0.298 2.354-0.398-0.27 0.424-0.535 0.859-0.791 1.308-0.26 0.454-0.502 0.907-0.731 1.357zM16 9.166c0.524 0.579 1.046 1.22 1.556 1.913-0.509-0.025-1.028-0.039-1.556-0.039s-1.047 0.014-1.556 0.039c0.51-0.693 1.033-1.334 1.556-1.913zM20.275 13.509c-0.256-0.449-0.522-0.883-0.791-1.308 0.839 0.1 1.625 0.236 2.354 0.398-0.223 0.721-0.498 1.479-0.831 2.267-0.229-0.45-0.472-0.903-0.731-1.357zM10.355 6.1c0.205-0.12 0.447-0.18 0.722-0.18 0.198 0 0.413 0.031 0.645 0.093 1.065 0.285 2.327 1.166 3.612 2.454-0.724 0.794-1.443 1.701-2.134 2.697-1.177 0.106-2.285 0.278-3.3 0.507-0.737-2.877-0.535-4.994 0.454-5.571zM4.64 16c0-1.151 1.728-2.381 4.587-3.168 0.31 1.011 0.717 2.076 1.218 3.168-0.501 1.093-0.908 2.157-1.218 3.168-2.859-0.788-4.587-2.018-4.587-3.168zM11.722 25.987c-0.555 0.148-1.014 0.119-1.367-0.087-0.989-0.578-1.191-2.694-0.454-5.572 1.015 0.228 2.123 0.4 3.3 0.507 0.691 0.996 1.41 1.903 2.134 2.698-1.285 1.288-2.547 2.169-3.612 2.454zM21.645 25.9c-0.353 0.206-0.812 0.235-1.367 0.087-1.065-0.285-2.327-1.166-3.612-2.454 0.724-0.794 1.443-1.701 2.134-2.698 1.177-0.106 2.285-0.278 3.3-0.507 0.737 2.877 0.535 4.994-0.454 5.572zM22.773 19.168c-0.31-1.011-0.717-2.076-1.218-3.168 0.501-1.093 0.908-2.158 1.218-3.168 2.859 0.788 4.587 2.018 4.587 3.168s-1.728 2.381-4.587 3.168z"></path>
     <path fill="#1f212b" style="fill: var(--color9, #1f212b)" d="M11.070 27.201c-0.471 0-0.901-0.112-1.28-0.334-1.482-0.866-1.851-3.288-1.017-6.66-3.341-0.95-5.253-2.479-5.253-4.207s1.912-3.257 5.253-4.207c-0.833-3.371-0.465-5.794 1.017-6.66 0.62-0.363 1.367-0.431 2.222-0.202 1.19 0.319 2.566 1.222 3.988 2.617 1.422-1.395 2.799-2.299 3.988-2.617 0.854-0.228 1.602-0.161 2.222 0.202 1.482 0.866 1.85 3.288 1.017 6.66 3.341 0.95 5.253 2.479 5.253 4.207s-1.912 3.257-5.253 4.207c0.833 3.371 0.465 5.794-1.017 6.66-0.617 0.36-1.372 0.429-2.222 0.202-1.19-0.319-2.567-1.222-3.988-2.617-1.422 1.395-2.798 2.299-3.988 2.617-0.327 0.088-0.644 0.132-0.94 0.132-0.001 0-0.001 0-0.002 0zM11.073 5.12c-0.416 0-0.792 0.097-1.122 0.29-1.352 0.789-1.662 3.203-0.83 6.455 0.021 0.084-0.028 0.171-0.113 0.194-3.236 0.892-5.168 2.366-5.168 3.941s1.932 3.049 5.168 3.941c0.084 0.023 0.134 0.109 0.113 0.194-0.832 3.253-0.522 5.666 0.83 6.455 0.33 0.192 0.706 0.29 1.119 0.29 0.001 0 0.001 0 0.002 0 0.268 0 0.556-0.041 0.857-0.121 1.167-0.313 2.536-1.228 3.958-2.646 0.062-0.062 0.164-0.062 0.226 0 1.422 1.419 2.791 2.333 3.958 2.646 0.766 0.204 1.435 0.148 1.978-0.169 1.352-0.789 1.662-3.203 0.83-6.455-0.021-0.084 0.028-0.171 0.113-0.194 3.236-0.892 5.168-2.366 5.168-3.941s-1.932-3.049-5.168-3.941c-0.084-0.023-0.134-0.109-0.113-0.194 0.832-3.253 0.521-5.666-0.83-6.455-0.544-0.318-1.209-0.374-1.978-0.169-1.167 0.313-2.536 1.228-3.958 2.646-0.062 0.062-0.164 0.062-0.226 0-1.422-1.419-2.791-2.334-3.958-2.646-0.301-0.081-0.587-0.121-0.855-0.121zM20.924 26.24c-0.212 0-0.441-0.033-0.687-0.098-1.066-0.286-2.34-1.148-3.684-2.496-0.060-0.060-0.062-0.158-0.005-0.221 0.725-0.795 1.438-1.697 2.121-2.681 0.027-0.039 0.070-0.064 0.117-0.068 1.156-0.104 2.259-0.274 3.28-0.503 0.084-0.019 0.169 0.032 0.19 0.116 0.748 2.919 0.545 5.123-0.529 5.749v0c-0.23 0.134-0.499 0.202-0.803 0.202zM16.887 23.527c1.264 1.246 2.449 2.042 3.433 2.306 0.512 0.137 0.931 0.113 1.245-0.070v0c0.914-0.534 1.074-2.583 0.418-5.244-0.969 0.211-2.009 0.369-3.094 0.469-0.645 0.925-1.318 1.779-2.002 2.539zM11.076 26.24c-0.304 0-0.572-0.067-0.803-0.201-1.074-0.627-1.276-2.83-0.529-5.75 0.021-0.084 0.107-0.134 0.19-0.116 1.020 0.23 2.124 0.399 3.28 0.503 0.047 0.004 0.090 0.029 0.117 0.068 0.683 0.984 1.396 1.886 2.121 2.681 0.058 0.063 0.055 0.16-0.005 0.221-1.345 1.347-2.619 2.21-3.684 2.496v0c-0.246 0.065-0.475 0.098-0.687 0.098zM10.017 20.518c-0.656 2.66-0.496 4.71 0.418 5.244 0.314 0.183 0.733 0.207 1.245 0.070v0c0.984-0.264 2.168-1.060 3.433-2.306-0.684-0.761-1.356-1.614-2.001-2.539-1.086-0.101-2.126-0.259-3.095-0.469zM16 22.994c-0.045 0-0.088-0.019-0.119-0.053-0.532-0.588-1.059-1.236-1.567-1.926-0.036-0.050-0.041-0.116-0.012-0.171s0.084-0.088 0.149-0.084c1.058 0.052 2.040 0.052 3.098 0 0.064-0.004 0.12 0.030 0.149 0.084s0.025 0.121-0.012 0.171c-0.508 0.689-1.035 1.337-1.567 1.926-0.030 0.034-0.074 0.053-0.119 0.053zM14.773 21.096c0.4 0.53 0.812 1.032 1.227 1.499 0.415-0.467 0.826-0.969 1.227-1.499-0.836 0.032-1.617 0.032-2.453 0zM16 20.16c-0.758 0-1.522-0.028-2.272-0.084-0.049-0.004-0.093-0.029-0.121-0.070-0.428-0.636-0.828-1.279-1.188-1.91-0.378-0.662-0.734-1.343-1.059-2.026-0.021-0.044-0.021-0.094 0-0.138 0.325-0.683 0.682-1.364 1.059-2.026 0.36-0.63 0.76-1.273 1.188-1.911 0.027-0.041 0.072-0.067 0.121-0.070 1.499-0.112 3.044-0.112 4.543 0 0.049 0.004 0.093 0.029 0.121 0.070 0.428 0.637 0.828 1.28 1.188 1.911 0.378 0.662 0.734 1.343 1.059 2.026 0.021 0.044 0.021 0.094 0 0.138-0.325 0.683-0.682 1.364-1.059 2.026v0c-0.36 0.631-0.76 1.274-1.188 1.91-0.027 0.041-0.072 0.067-0.121 0.070-0.749 0.056-1.514 0.084-2.272 0.084zM13.83 19.762c1.433 0.103 2.907 0.103 4.34 0 0.407-0.609 0.788-1.223 1.132-1.826 0.361-0.633 0.702-1.284 1.015-1.936-0.313-0.652-0.654-1.304-1.015-1.936-0.344-0.603-0.725-1.217-1.133-1.827-1.433-0.103-2.907-0.103-4.34 0-0.408 0.61-0.789 1.224-1.133 1.827-0.361 0.633-0.702 1.284-1.015 1.936 0.313 0.652 0.654 1.304 1.015 1.936 0.345 0.604 0.726 1.217 1.133 1.826zM19.484 19.959c-0.054 0-0.106-0.028-0.135-0.075-0.033-0.052-0.033-0.119 0-0.171 0.297-0.468 0.555-0.893 0.787-1.301 0.244-0.428 0.489-0.883 0.727-1.35 0.028-0.055 0.087-0.088 0.148-0.087 0.062 0.002 0.117 0.040 0.142 0.098 0.325 0.768 0.606 1.535 0.836 2.281 0.013 0.043 0.008 0.089-0.014 0.127s-0.060 0.066-0.104 0.076c-0.752 0.168-1.549 0.303-2.369 0.401-0.006 0.001-0.013 0.001-0.019 0.001zM20.991 17.514c-0.19 0.364-0.383 0.718-0.576 1.057-0.187 0.327-0.389 0.665-0.614 1.027 0.63-0.084 1.245-0.19 1.833-0.316-0.185-0.58-0.4-1.173-0.642-1.768zM12.516 19.959c-0.006 0-0.013-0-0.019-0.001-0.82-0.098-1.617-0.233-2.369-0.401-0.044-0.010-0.081-0.037-0.104-0.076s-0.028-0.085-0.014-0.127c0.23-0.746 0.512-1.514 0.836-2.281 0.024-0.057 0.080-0.095 0.142-0.098 0.058-0.006 0.12 0.032 0.148 0.087 0.238 0.468 0.483 0.922 0.727 1.35 0.233 0.408 0.491 0.833 0.787 1.301 0.033 0.052 0.033 0.119 0 0.171-0.029 0.047-0.081 0.075-0.135 0.075zM10.368 19.282c0.588 0.126 1.202 0.232 1.833 0.316-0.226-0.362-0.428-0.7-0.614-1.027-0.193-0.338-0.386-0.693-0.576-1.057-0.243 0.595-0.458 1.187-0.642 1.768zM22.773 19.328c-0.069 0-0.132-0.044-0.153-0.113-0.312-1.017-0.719-2.076-1.21-3.148-0.020-0.042-0.020-0.091 0-0.133 0.491-1.072 0.898-2.131 1.211-3.149 0.026-0.083 0.113-0.129 0.196-0.107 2.902 0.8 4.704 2.073 4.704 3.323s-1.803 2.523-4.705 3.323c-0.014 0.004-0.028 0.006-0.042 0.006zM21.731 16c0.46 1.010 0.846 2.009 1.148 2.972 2.63-0.75 4.321-1.909 4.321-2.972s-1.691-2.222-4.321-2.972c-0.303 0.964-0.689 1.963-1.148 2.972zM9.227 19.328c-0.014 0-0.028-0.002-0.043-0.006-2.902-0.8-4.705-2.073-4.705-3.323s1.803-2.523 4.705-3.323c0.083-0.022 0.17 0.024 0.196 0.107 0.312 1.018 0.72 2.077 1.211 3.149 0.020 0.042 0.020 0.091 0 0.133-0.491 1.072-0.898 2.131-1.21 3.148-0.021 0.069-0.084 0.113-0.153 0.113zM9.121 13.028c-2.63 0.75-4.321 1.909-4.321 2.972s1.691 2.222 4.321 2.972c0.303-0.964 0.689-1.962 1.148-2.972-0.459-1.009-0.845-2.008-1.148-2.972zM21.006 15.026c-0.060 0-0.115-0.034-0.143-0.087-0.242-0.476-0.48-0.918-0.727-1.35v0c-0.232-0.407-0.49-0.833-0.788-1.301-0.033-0.052-0.033-0.119-0-0.171s0.092-0.081 0.155-0.074c0.82 0.098 1.617 0.233 2.369 0.401 0.044 0.010 0.081 0.037 0.104 0.076s0.028 0.085 0.014 0.127c-0.231 0.748-0.512 1.515-0.836 2.282-0.024 0.057-0.080 0.095-0.142 0.098-0.003 0-0.004 0-0.006 0zM20.414 13.43c0.196 0.342 0.386 0.691 0.576 1.057 0.242-0.594 0.457-1.187 0.642-1.768-0.588-0.126-1.202-0.232-1.833-0.316 0.227 0.362 0.429 0.7 0.615 1.027v0zM10.994 15.026c-0.002 0-0.004 0-0.006 0-0.062-0.002-0.117-0.040-0.142-0.098-0.324-0.767-0.606-1.534-0.836-2.282-0.013-0.043-0.008-0.089 0.014-0.127s0.060-0.066 0.104-0.076c0.752-0.168 1.549-0.303 2.369-0.401 0.062-0.006 0.122 0.021 0.155 0.074s0.033 0.119-0 0.171c-0.298 0.468-0.555 0.894-0.788 1.301-0.247 0.432-0.485 0.874-0.727 1.35-0.028 0.053-0.083 0.087-0.143 0.087zM10.368 12.718c0.185 0.581 0.4 1.174 0.642 1.768 0.191-0.366 0.381-0.714 0.576-1.057 0.187-0.327 0.389-0.665 0.615-1.027-0.63 0.084-1.245 0.19-1.833 0.316zM22.1 11.832c-0.012 0-0.023-0.001-0.035-0.004-1.020-0.23-2.124-0.399-3.28-0.503-0.047-0.004-0.090-0.029-0.117-0.068-0.683-0.984-1.396-1.886-2.121-2.681-0.058-0.063-0.055-0.16 0.005-0.221 1.344-1.347 2.619-2.211 3.684-2.496v0c0.598-0.16 1.1-0.124 1.489 0.103 1.074 0.627 1.276 2.83 0.529 5.75-0.019 0.072-0.083 0.12-0.155 0.12zM18.888 11.012c1.086 0.101 2.126 0.259 3.095 0.469 0.656-2.66 0.496-4.71-0.418-5.244-0.313-0.183-0.733-0.207-1.245-0.070-0.984 0.264-2.169 1.060-3.433 2.306 0.684 0.76 1.356 1.613 2.002 2.539zM9.9 11.832c-0.072 0-0.136-0.048-0.155-0.12-0.748-2.919-0.545-5.122 0.529-5.749 0 0 0 0 0 0 0.389-0.227 0.892-0.263 1.489-0.103 1.066 0.286 2.34 1.149 3.684 2.496 0.060 0.060 0.062 0.158 0.005 0.221-0.724 0.795-1.438 1.697-2.121 2.681-0.027 0.039-0.070 0.064-0.117 0.068-1.156 0.104-2.26 0.274-3.28 0.503-0.012 0.003-0.023 0.004-0.035 0.004zM10.435 6.238c-0.914 0.534-1.074 2.584-0.418 5.244 0.969-0.211 2.009-0.369 3.095-0.469 0.645-0.926 1.318-1.779 2.001-2.539-1.264-1.246-2.449-2.042-3.433-2.306-0.51-0.136-0.93-0.112-1.245 0.071v0zM17.556 11.239c-0.003 0-0.005 0-0.008 0-1.058-0.052-2.039-0.052-3.097 0-0.066 0.002-0.12-0.030-0.149-0.084s-0.025-0.121 0.012-0.171c0.508-0.69 1.035-1.338 1.567-1.926 0.061-0.067 0.177-0.067 0.237 0 0.532 0.588 1.059 1.236 1.567 1.926 0.036 0.050 0.041 0.116 0.012 0.171-0.028 0.052-0.083 0.084-0.141 0.084zM16 10.88c0.397 0 0.809 0.008 1.227 0.025-0.401-0.53-0.812-1.033-1.227-1.499-0.414 0.466-0.826 0.969-1.227 1.499 0.418-0.016 0.829-0.025 1.227-0.025z"></path>
    </symbol>
    <symbol id="icon-css" viewBox="0 0 32 32">
     <path fill="#0277bd" style="fill: var(--color10, #0277bd)" d="M27.333 3.333h-22.667l2 22.667 9.333 2.667 9.333-2.667 2-22.667z"></path>
     <path fill="#039be5" style="fill: var(--color11, #039be5)" d="M16 5.333v21.267l7.467-2.133 1.667-19.133z"></path>
     <path fill="#fff" style="fill: var(--color12, #fff)" d="M22.067 8.667h-6.067v2.667h3.267l-0.2 2.667h-3.067v2.667h2.933l-0.2 3-2.733 0.933v2.8l5.267-1.733 0.467-7.667z"></path>
     <path fill="#eee" style="fill: var(--color13, #eee)" d="M16 8.667v2.667h-5.933l-0.2-2.667h6.133zM12.933 14l0.133 2.667h2.933v-2.667h-3.067zM13.2 18h-2.667l0.2 3.667 5.267 1.733v-2.8l-2.733-0.933-0.067-1.667z"></path>
    </symbol>
    <symbol id="icon-html" viewBox="0 0 32 32">
     <path fill="#e65100" style="fill: var(--color14, #e65100)" d="M27.333 3.333h-22.667l2 22.667 9.333 2.667 9.333-2.667 2-22.667z"></path>
     <path fill="#ff6d00" style="fill: var(--color15, #ff6d00)" d="M16 5.333v21.267l7.467-2.133 1.667-19.133z"></path>
     <path fill="#fff" style="fill: var(--color12, #fff)" d="M16 16.667v-2.667h5.733l-0.467 7.667-5.267 1.733v-2.8l2.733-0.933 0.2-3h-2.933zM21.933 11.333l0.2-2.667h-6.133v2.667h5.933z"></path>
     <path fill="#eee" style="fill: var(--color13, #eee)" d="M16 20.6v2.8l-5.267-1.733-0.267-3.667h2.667l0.133 1.667 2.733 0.933zM12.733 11.333h3.267v-2.667h-6.067l0.467 8h5.6v-2.667h-3.067l-0.2-2.667z"></path>
    </symbol>
    <symbol id="icon-sass" viewBox="0 0 32 32">
     <path fill="#f06292" style="fill: var(--color1, #f06292)" d="M26.578 17.304c-1.025 0.005-1.913 0.251-2.657 0.619-0.272-0.543-0.548-1.021-0.594-1.377-0.054-0.415-0.117-0.663-0.051-1.157s0.351-1.194 0.347-1.247c-0.004-0.053-0.064-0.304-0.655-0.309s-1.097 0.114-1.157 0.27-0.173 0.507-0.244 0.874c-0.103 0.536-1.181 2.449-1.792 3.449-0.2-0.391-0.37-0.735-0.405-1.007-0.054-0.415-0.117-0.663-0.051-1.157s0.351-1.194 0.347-1.247c-0.004-0.053-0.064-0.304-0.655-0.309s-1.097 0.114-1.157 0.27-0.123 0.521-0.244 0.874c-0.121 0.353-1.553 3.543-1.928 4.37-0.191 0.421-0.357 0.76-0.475 0.991-0.001-0.001-0.001-0.001-0.001-0.001s-0.007 0.015-0.019 0.041c-0.101 0.197-0.16 0.305-0.16 0.305s0.001 0.001 0.002 0.004c-0.080 0.145-0.165 0.279-0.207 0.279-0.029 0-0.089-0.385 0.013-0.913 0.213-1.107 0.725-2.832 0.72-2.892-0.003-0.031 0.095-0.331-0.334-0.489-0.417-0.153-0.566 0.102-0.604 0.103-0.037 0.001-0.064 0.090-0.064 0.090s0.465-1.941-0.887-1.941c-0.845 0-2.016 0.925-2.593 1.763-0.364 0.199-1.143 0.624-1.969 1.078-0.317 0.175-0.641 0.353-0.949 0.522-0.021-0.023-0.042-0.046-0.063-0.069-1.639-1.749-4.669-2.985-4.541-5.337 0.047-0.855 0.344-3.105 5.822-5.835 4.487-2.236 8.080-1.621 8.701-0.257 0.887 1.949-1.92 5.569-6.58 6.092-1.775 0.199-2.711-0.489-2.943-0.745-0.245-0.27-0.281-0.282-0.373-0.231-0.149 0.083-0.055 0.321 0 0.463 0.139 0.362 0.71 1.004 1.683 1.324 0.857 0.281 2.941 0.435 5.462-0.54 2.824-1.092 5.029-4.131 4.381-6.67-0.659-2.583-4.941-3.432-8.995-1.992-2.415 0.857-5.027 2.203-6.905 3.959-2.233 2.088-2.589 3.906-2.442 4.665 0.521 2.699 4.241 4.456 5.73 5.758-0.073 0.041-0.143 0.079-0.205 0.113-0.747 0.369-3.582 1.853-4.291 3.421-0.805 1.778 0.128 3.054 0.745 3.226 1.913 0.532 3.875-0.425 4.931-1.999s0.926-3.621 0.442-4.556c-0.006-0.011-0.013-0.023-0.019-0.035 0.193-0.114 0.389-0.23 0.584-0.345 0.38-0.223 0.753-0.431 1.077-0.607-0.181 0.496-0.314 1.091-0.383 1.951-0.081 1.009 0.333 2.314 0.874 2.827 0.239 0.226 0.525 0.231 0.707 0.231 0.63 0 0.917-0.524 1.234-1.144 0.388-0.76 0.733-1.645 0.733-1.645s-0.432 2.391 0.745 2.391c0.429 0 0.861-0.557 1.053-0.84 0.001 0.003 0.001 0.005 0.001 0.005s0.011-0.019 0.033-0.055c0.045-0.068 0.070-0.111 0.070-0.111s0.001-0.005 0.002-0.013c0.173-0.299 0.555-0.982 1.129-2.108 0.741-1.455 1.452-3.277 1.452-3.277s0.066 0.445 0.283 1.183c0.127 0.433 0.398 0.913 0.612 1.373-0.172 0.239-0.277 0.375-0.277 0.375s0.001 0.003 0.003 0.007c-0.137 0.183-0.291 0.379-0.453 0.571-0.585 0.697-1.282 1.493-1.375 1.722-0.11 0.271-0.084 0.469 0.129 0.63 0.155 0.117 0.431 0.135 0.72 0.116 0.526-0.035 0.895-0.166 1.078-0.245 0.285-0.101 0.616-0.259 0.927-0.487 0.574-0.422 0.92-1.025 0.887-1.825-0.019-0.441-0.159-0.877-0.337-1.289 0.052-0.075 0.104-0.151 0.157-0.227 0.905-1.323 1.607-2.776 1.607-2.776s0.066 0.445 0.283 1.183c0.109 0.373 0.326 0.78 0.521 1.179-0.851 0.691-1.378 1.495-1.561 2.021-0.339 0.975-0.073 1.416 0.424 1.517 0.225 0.045 0.544-0.058 0.783-0.159 0.298-0.099 0.656-0.263 0.991-0.509 0.574-0.422 1.126-1.013 1.093-1.812-0.015-0.364-0.114-0.725-0.248-1.072 0.721-0.301 1.655-0.467 2.844-0.329 2.551 0.298 3.051 1.891 2.956 2.557s-0.631 1.033-0.81 1.144c-0.179 0.111-0.233 0.149-0.219 0.231 0.022 0.119 0.105 0.115 0.257 0.089 0.21-0.035 1.339-0.542 1.388-1.773 0.061-1.564-1.436-3.28-4.087-3.266zM6.913 23.933c-0.845 0.922-2.025 1.27-2.532 0.977-0.547-0.317-0.33-1.674 0.707-2.653 0.632-0.596 1.448-1.145 1.989-1.483 0.123-0.074 0.304-0.183 0.524-0.315 0.037-0.021 0.057-0.032 0.057-0.032l-0.001-0.001c0.043-0.025 0.086-0.051 0.131-0.079 0.378 1.393 0.012 2.619-0.875 3.586zM13.070 19.749c-0.294 0.717-0.91 2.553-1.285 2.455-0.322-0.085-0.518-1.48-0.064-2.853 0.228-0.691 0.716-1.517 1.003-1.838 0.461-0.516 0.969-0.685 1.093-0.475 0.157 0.267-0.561 2.262-0.746 2.712zM18.156 22.175c-0.125 0.065-0.239 0.106-0.292 0.075-0.039-0.023 0.051-0.109 0.051-0.109s0.636-0.685 0.887-0.996c0.146-0.181 0.315-0.397 0.499-0.637 0.001 0.024 0.002 0.048 0.002 0.071-0.001 0.82-0.793 1.373-1.147 1.596zM22.074 21.282c-0.093-0.066-0.077-0.28 0.229-0.947 0.12-0.262 0.395-0.703 0.871-1.124 0.055 0.173 0.089 0.339 0.088 0.494-0.006 1.032-0.742 1.417-1.187 1.577z"></path>
    </symbol>
    <symbol id="icon-mongo" viewBox="0 0 32 32">
<path fill="#78c47c" style="fill: var(--color1, #78c47c)" d="M27.4 5.5h-9.2l-2.1 4.2h-11.8v16.8h25.2v-21zM27.4 24.2h-20.8v-12.4h20.8zM27.4 9.7h-8.2l1-2.1h7.1v2.1zM25.7 13.7h-25.2l3.8 12.8h25.2z"></path>
<path fill="#000" style="fill: var(--color2, #000)" d="M26.775 31l-0.563-0.187s0.072-2.851-0.956-3.050c-0.678-0.786 0.1-33.556 2.567-0.112-0.466 0.24-0.821 0.641-0.996 1.128l-0.004 0.014c-0.054 0.4-0.084 0.863-0.084 1.332 0 0.308 0.013 0.613 0.039 0.914l-0.003-0.039z"></path>
<path fill="#000" style="fill: var(--color2, #000)" d="M27.079 28.247c2.41-1.829 3.951-4.695 3.951-7.922 0-0.707-0.074-1.397-0.215-2.062l0.011 0.065c-1.1-4.864-3.711-6.463-3.992-7.073-0.223-0.343-0.43-0.738-0.601-1.151l-0.018-0.049 0.208 13.552s-0.431 4.141 0.655 4.64z"></path>
<path fill="#000" style="fill: var(--color2, #000)" d="M25.925 28.427s-4.591-3.127-4.325-8.658c0.054-3.501 1.643-6.62 4.122-8.722l0.017-0.014c0.28-0.24 0.456-0.594 0.456-0.989 0-0.016-0-0.031-0.001-0.047l0 0.002c0.286 0.615 0.239 9.182 0.269 10.184 0.117 3.898-0.216 7.507-0.538 8.243z"></path>
</symbol>
  </defs>
</svg>